<svg width="191" height="37" viewBox="0 0 191 37" fill="none" xmlns="http://www.w3.org/2000/svg">
<g filter="url(#filter0_d_7472_872)">
<path d="M34.2967 0.140625H1.05078V28.3425L8.77725 33.8637H42.0232V5.66185L34.2967 0.140625ZM20.987 28.3452H14.8188V22.177H20.987V28.3452ZM32.3368 28.3452H26.1686V8.26879H9.17625V28.3452H3.00801V2.10055H32.3368V28.3452Z" fill="#06080D"/>
<path d="M59.6436 3.89844H63.1078L73.4655 29.4934H70.0013L67.2622 22.7482H55.4865L52.7474 29.4934H49.2832L59.6409 3.89844H59.6436ZM65.9978 19.5859L61.3905 8.17415L56.7536 19.5859H65.9978Z" fill="#06080D"/>
<path d="M89.5979 26.3002V29.4922H86.2145C82.087 29.4922 80.3401 27.7452 80.3401 23.4075V14.4922H77.0996V11.4188H80.3401V5.92188H83.5941V11.4188H89.6005V14.4922H83.5941V24.0492C83.5941 25.292 84.6023 26.3002 85.8451 26.3002H89.6005H89.5979Z" fill="#06080D"/>
<path d="M105.729 26.3002V29.4922H102.345C98.2179 29.4922 96.471 27.7452 96.471 23.4075V14.4922H93.2305V11.4188H96.471V5.92188H99.7249V11.4188H105.731V14.4922H99.7249V24.0492C99.7249 25.292 100.733 26.3002 101.976 26.3002H105.731H105.729Z" fill="#06080D"/>
<path d="M119.602 14.4332C115.143 14.4035 112.582 16.722 112.582 20.7902V29.4952H109.357V11.4219H112.582V15.126C114.027 12.0527 116.879 11.4219 119.602 11.4219V14.4332Z" fill="#06080D"/>
<path d="M137.965 25.942C137.151 28.0502 134.56 29.4952 131.851 29.4952C126.669 29.4952 123.234 25.8207 123.234 20.2483C123.234 14.6758 126.639 11.4219 131.851 11.4219C134.533 11.4219 137.153 12.476 137.965 14.6138V11.4219H141.189V29.4952H137.965V25.942ZM132.241 26.244C135.614 26.244 137.965 23.8635 137.965 20.2806C137.965 16.6978 135.555 14.2553 132.212 14.2553C128.869 14.2553 126.488 16.6358 126.488 20.251C126.488 23.8662 128.836 26.2467 132.241 26.2467V26.244Z" fill="#06080D"/>
<path d="M186.725 25.942C185.91 28.0502 183.32 29.4952 180.61 29.4952C175.429 29.4952 171.994 25.8207 171.994 20.2483C171.994 14.6758 175.399 11.4219 180.61 11.4219C183.293 11.4219 185.913 12.476 186.725 14.6138V11.4219H189.949V29.4952H186.725V25.942ZM181.001 26.244C184.374 26.244 186.725 23.8635 186.725 20.2806C186.725 16.6978 184.314 14.2553 180.972 14.2553C177.629 14.2553 175.248 16.6358 175.248 20.251C175.248 23.8662 177.596 26.2467 181.001 26.2467V26.244Z" fill="#06080D"/>
<path d="M151.646 20.4586L144.82 11.4219H148.705L153.135 18.1266L157.561 11.4219H161.478L154.652 20.4586L161.478 29.4952H157.561L153.135 22.7905L148.705 29.4952H144.82L151.646 20.4586Z" fill="#06080D"/>
<path d="M166.762 4.28125C167.727 4.28125 168.363 4.94175 168.363 5.90688C168.363 6.87202 167.727 7.55947 166.762 7.55947C165.746 7.55947 165.109 6.89898 165.109 5.90688C165.109 4.91479 165.746 4.28125 166.762 4.28125ZM165.109 29.4934V11.42H168.363V29.4934H165.109Z" fill="#06080D"/>
</g>
<defs>
<filter id="filter0_d_7472_872" x="0.5116" y="0.140625" width="189.977" height="35.8833" filterUnits="userSpaceOnUse" color-interpolation-filters="sRGB">
<feFlood flood-opacity="0" result="BackgroundImageFix"/>
<feColorMatrix in="SourceAlpha" type="matrix" values="0 0 0 0 0 0 0 0 0 0 0 0 0 0 0 0 0 0 127 0" result="hardAlpha"/>
<feOffset dy="1.61754"/>
<feGaussianBlur stdDeviation="0.269591"/>
<feComposite in2="hardAlpha" operator="out"/>
<feColorMatrix type="matrix" values="0 0 0 0 0 0 0 0 0 0 0 0 0 0 0 0 0 0 0.15 0"/>
<feBlend mode="normal" in2="BackgroundImageFix" result="effect1_dropShadow_7472_872"/>
<feBlend mode="normal" in="SourceGraphic" in2="effect1_dropShadow_7472_872" result="shape"/>
</filter>
</defs>
</svg>
